<svg width="521" height="521" viewBox="0 0 521 521" fill="none" xmlns="http://www.w3.org/2000/svg">
<circle cx="260.5" cy="260.5" r="260.5" fill="#704F38"/>
<path d="M213.449 214.636C212.384 205.64 208.063 198.656 200.487 193.685C192.911 188.713 183.619 186.227 172.611 186.227C164.562 186.227 157.518 187.529 151.482 190.134C145.504 192.738 140.828 196.318 137.455 200.876C134.14 205.433 132.483 210.612 132.483 216.412C132.483 221.265 133.637 225.438 135.945 228.93C138.313 232.362 141.331 235.233 145.001 237.541C148.67 239.79 152.517 241.655 156.542 243.134C160.567 244.555 164.266 245.709 167.639 246.597L186.105 251.568C190.84 252.811 196.107 254.527 201.908 256.717C207.767 258.907 213.36 261.896 218.687 265.684C224.073 269.413 228.512 274.207 232.004 280.066C235.496 285.925 237.241 293.116 237.241 301.639C237.241 311.464 234.667 320.342 229.518 328.273C224.428 336.204 216.97 342.507 207.146 347.183C197.38 351.858 185.513 354.196 171.545 354.196C158.525 354.196 147.25 352.095 137.721 347.893C128.251 343.691 120.794 337.831 115.349 330.315C109.963 322.798 106.915 314.068 106.205 304.125H128.932C129.524 310.991 131.832 316.672 135.857 321.17C139.94 325.609 145.089 328.924 151.304 331.114C157.578 333.244 164.325 334.31 171.545 334.31C179.95 334.31 187.496 332.948 194.184 330.226C200.872 327.444 206.169 323.597 210.075 318.685C213.982 313.713 215.935 307.913 215.935 301.284C215.935 295.247 214.248 290.335 210.874 286.547C207.501 282.759 203.062 279.681 197.558 277.314C192.053 274.946 186.105 272.875 179.713 271.099L157.341 264.707C143.136 260.624 131.891 254.794 123.605 247.218C115.319 239.642 111.176 229.729 111.176 217.477C111.176 207.297 113.928 198.42 119.433 190.844C124.996 183.209 132.453 177.29 141.805 173.088C151.215 168.827 161.721 166.696 173.321 166.696C185.04 166.696 195.456 168.797 204.571 172.999C213.686 177.142 220.906 182.824 226.233 190.045C231.619 197.265 234.46 205.463 234.756 214.636H213.449ZM419.748 226H397.731C396.429 219.667 394.15 214.104 390.895 209.31C387.699 204.516 383.792 200.491 379.176 197.236C374.619 193.921 369.558 191.436 363.995 189.778C358.431 188.121 352.631 187.293 346.594 187.293C335.586 187.293 325.613 190.074 316.676 195.638C307.798 201.201 300.725 209.398 295.458 220.229C290.25 231.06 287.645 244.348 287.645 260.091C287.645 275.834 290.25 289.121 295.458 299.952C300.725 310.783 307.798 318.981 316.676 324.544C325.613 330.107 335.586 332.889 346.594 332.889C352.631 332.889 358.431 332.061 363.995 330.403C369.558 328.746 374.619 326.29 379.176 323.035C383.792 319.72 387.699 315.666 390.895 310.872C394.15 306.019 396.429 300.455 397.731 294.182H419.748C418.091 303.474 415.072 311.79 410.692 319.129C406.313 326.468 400.867 332.712 394.357 337.861C387.847 342.951 380.537 346.827 372.429 349.491C364.38 352.154 355.768 353.486 346.594 353.486C331.088 353.486 317.297 349.698 305.224 342.122C293.15 334.546 283.65 323.775 276.726 309.807C269.801 295.839 266.339 279.267 266.339 260.091C266.339 240.915 269.801 224.343 276.726 210.375C283.65 196.407 293.15 185.635 305.224 178.06C317.297 170.484 331.088 166.696 346.594 166.696C355.768 166.696 364.38 168.028 372.429 170.691C380.537 173.354 387.847 177.261 394.357 182.41C400.867 187.5 406.313 193.714 410.692 201.053C415.072 208.333 418.091 216.649 419.748 226Z" fill="white"/>
</svg>
